<svg xmlns="http://www.w3.org/2000/svg" width="912.5010986328125" height="378.3370666503906" viewBox="-572.8595581054688 -197.32400512695312 912.5010986328125 378.3370666503906"><title>Neo4j Graph Visualization</title><desc>Created using Neo4j (http://www.neo4j.com/)</desc><g class="layer relationships"><g class="relationship" transform="translate(-223.45877408353206 -164.82398879860017) rotate(495.68550857255275)"><path class="b-outline" fill="#FFC454" stroke="none" d="M 32.5 1.5 L 187.79675243500486 1.5 L 187.79675243500486 -1.5 L 32.5 -1.5 Z M 246.10143993500486 1.5 L 401.3981923700097 1.5 L 401.3981923700097 4.5 L 410.3981923700097 0 L 401.3981923700097 -4.5 L 401.3981923700097 -1.5 L 246.10143993500486 -1.5 Z"/><text text-anchor="middle" pointer-events="none" font-size="8px" fill="#000000" x="216.94909618500486" y="3" transform="rotate(180 216.94909618500486 0)" font-family="Helvetica Neue, Helvetica, Arial, sans-serif">MARRIED_TO</text></g><g class="relationship" transform="translate(-223.45877408353206 -164.82398879860017) rotate(390.56325794080385)"><path class="b-outline" fill="#4C8EDA" stroke="none" d="M 32.5 1.5 L 278.1546448936784 1.5 L 278.1546448936784 -1.5 L 32.5 -1.5 Z M 329.0569886436784 1.5 L 574.7116335373568 1.5 L 574.7116335373568 4.5 L 583.7116335373568 0 L 574.7116335373568 -4.5 L 574.7116335373568 -1.5 L 329.0569886436784 -1.5 Z"/><text text-anchor="middle" pointer-events="none" font-size="8px" fill="#000000" x="303.6058167686784" y="3" font-family="Helvetica Neue, Helvetica, Arial, sans-serif">HAS_CHILD</text></g><g class="relationship" transform="translate(-223.45877408353206 -164.82398879860017) rotate(361.4533629568703)"><path class="b-outline" fill="#4C8EDA" stroke="none" d="M 32.5 1.5 L 234.0898386974623 1.5 L 234.0898386974623 -1.5 L 32.5 -1.5 Z M 284.9921824474623 1.5 L 486.5820211449246 1.5 L 486.5820211449246 4.5 L 495.5820211449246 0 L 486.5820211449246 -4.5 L 486.5820211449246 -1.5 L 284.9921824474623 -1.5 Z"/><text text-anchor="middle" pointer-events="none" font-size="8px" fill="#000000" x="259.5410105724623" y="3" font-family="Helvetica Neue, Helvetica, Arial, sans-serif">HAS_CHILD</text></g><g class="relationship" transform="translate(-223.45877408353206 -164.82398879860017) rotate(403.85133521195525)"><path class="b-outline" fill="#4C8EDA" stroke="none" d="M 32.5 1.5 L 142.94720646979843 1.5 L 142.94720646979843 -1.5 L 32.5 -1.5 Z M 193.84955021979843 1.5 L 304.29675668959686 1.5 L 304.29675668959686 4.5 L 313.29675668959686 0 L 304.29675668959686 -4.5 L 304.29675668959686 -1.5 L 193.84955021979843 -1.5 Z"/><text text-anchor="middle" pointer-events="none" font-size="8px" fill="#000000" x="168.39837834479843" y="3" font-family="Helvetica Neue, Helvetica, Arial, sans-serif">HAS_CHILD</text></g><g class="relationship" transform="translate(-540.3595460783961 144.58304007062463) rotate(360.2656892715909)"><path class="b-outline" fill="#4C8EDA" stroke="none" d="M 32.5 1.5 L 393.8039167657445 1.5 L 393.8039167657445 -1.5 L 32.5 -1.5 Z M 444.7062605157445 1.5 L 806.010177281489 1.5 L 806.010177281489 4.5 L 815.010177281489 0 L 806.010177281489 -4.5 L 806.010177281489 -1.5 L 444.7062605157445 -1.5 Z"/><text text-anchor="middle" pointer-events="none" font-size="8px" fill="#000000" x="419.2550886407445" y="3" font-family="Helvetica Neue, Helvetica, Arial, sans-serif">HAS_CHILD</text></g><g class="relationship" transform="translate(-540.3595460783961 144.58304007062463) rotate(340.69010030068716)"><path class="b-outline" fill="#4C8EDA" stroke="none" d="M 32.5 1.5 L 417.6347526435508 1.5 L 417.6347526435508 -1.5 L 32.5 -1.5 Z M 468.5370963935508 1.5 L 853.6718490371017 1.5 L 853.6718490371017 4.5 L 862.6718490371017 0 L 853.6718490371017 -4.5 L 853.6718490371017 -1.5 L 468.5370963935508 -1.5 Z"/><text text-anchor="middle" pointer-events="none" font-size="8px" fill="#000000" x="443.0859245185508" y="3" font-family="Helvetica Neue, Helvetica, Arial, sans-serif">HAS_CHILD</text></g><g class="relationship" transform="translate(-540.3595460783961 144.58304007062463) rotate(352.9687425226398)"><path class="b-outline" fill="#4C8EDA" stroke="none" d="M 32.5 1.5 L 255.32855699387534 1.5 L 255.32855699387534 -1.5 L 32.5 -1.5 Z M 306.23090074387534 1.5 L 529.0594577377507 1.5 L 529.0594577377507 4.5 L 538.0594577377507 0 L 529.0594577377507 -4.5 L 529.0594577377507 -1.5 L 306.23090074387534 -1.5 Z"/><text text-anchor="middle" pointer-events="none" font-size="8px" fill="#000000" x="280.77972886887534" y="3" font-family="Helvetica Neue, Helvetica, Arial, sans-serif">HAS_CHILD</text></g><g class="relationship" transform="translate(307.1415191357717 148.5130599881122) rotate(269.48651659687414)"><path class="b-outline" fill="#F79767" stroke="none" d="M 32.5 1.5 L 118.915109412562 1.5 L 118.915109412562 -1.5 L 32.5 -1.5 Z M 172.040109412562 1.5 L 258.455218825124 1.5 L 258.455218825124 4.5 L 267.455218825124 0 L 258.455218825124 -4.5 L 258.455218825124 -1.5 L 172.040109412562 -1.5 Z"/><text text-anchor="middle" pointer-events="none" font-size="8px" fill="#000000" x="145.477609412562" y="3" transform="rotate(180 145.477609412562 0)" font-family="Helvetica Neue, Helvetica, Arial, sans-serif">SIBLING_OF</text></g><g class="relationship" transform="translate(307.1415191357717 148.5130599881122) rotate(194.69860850128794)"><path class="b-outline" fill="#F79767" stroke="none" d="M 32.5 1.5 L 114.31125855978331 1.5 L 114.31125855978331 -1.5 L 32.5 -1.5 Z M 167.4362585597833 1.5 L 249.24751711956662 1.5 L 249.24751711956662 4.5 L 258.2475171195666 0 L 249.24751711956662 -4.5 L 249.24751711956662 -1.5 L 167.4362585597833 -1.5 Z"/><text text-anchor="middle" pointer-events="none" font-size="8px" fill="#000000" x="140.8737585597833" y="3" transform="rotate(180 140.8737585597833 0)" font-family="Helvetica Neue, Helvetica, Arial, sans-serif">SIBLING_OF</text></g><g class="relationship" transform="translate(304.4533636363618 -151.43011316380174) rotate(500.92432974127905)"><path class="b-outline" fill="#F79767" stroke="none" d="M 32.5 1.5 L 148.33931566355147 1.5 L 148.33931566355147 -1.5 L 32.5 -1.5 Z M 201.46431566355147 1.5 L 317.30363132710295 1.5 L 317.30363132710295 4.5 L 326.30363132710295 0 L 317.30363132710295 -4.5 L 317.30363132710295 -1.5 L 201.46431566355147 -1.5 Z"/><text text-anchor="middle" pointer-events="none" font-size="8px" fill="#000000" x="174.90181566355147" y="3" transform="rotate(180 174.90181566355147 0)" font-family="Helvetica Neue, Helvetica, Arial, sans-serif">SIBLING_OF</text></g><g class="relationship" transform="translate(-511.0031035560654 -113.79527890637104) rotate(349.93684131600946)"><path class="b-outline" fill="#C990C0" stroke="none" d="M 32.5 1.5 L 115.625974330736 1.5 L 115.625974330736 -1.5 L 32.5 -1.5 Z M 167.411130580736 1.5 L 250.537104911472 1.5 L 250.537104911472 4.5 L 259.537104911472 0 L 250.537104911472 -4.5 L 250.537104911472 -1.5 L 167.411130580736 -1.5 Z"/><text text-anchor="middle" pointer-events="none" font-size="8px" fill="#000000" x="141.518552455736" y="3" font-family="Helvetica Neue, Helvetica, Arial, sans-serif">OWNED_BY</text></g><g class="relationship" transform="translate(-511.0031035560654 -113.79527890637104) rotate(456.4820381585717)"><path class="b-outline" fill="#C990C0" stroke="none" d="M 32.5 1.5 L 99.62776300951731 1.5 L 99.62776300951731 -1.5 L 32.5 -1.5 Z M 151.4129192595173 1.5 L 218.54068226903462 1.5 L 218.54068226903462 4.5 L 227.54068226903462 0 L 218.54068226903462 -4.5 L 218.54068226903462 -1.5 L 151.4129192595173 -1.5 Z"/><text text-anchor="middle" pointer-events="none" font-size="8px" fill="#000000" x="125.52034113451731" y="3" transform="rotate(180 125.52034113451731 0)" font-family="Helvetica Neue, Helvetica, Arial, sans-serif">OWNED_BY</text></g></g><g class="layer nodes"><g class="node" aria-label="graph-node0" transform="translate(-223.45877408353206,-164.82398879860017)"><circle class="b-outline" cx="0" cy="0" r="32.5" fill="#D9C8AE" stroke="#c0a378" stroke-width="2px"/><text class="caption" text-anchor="middle" pointer-events="none" x="0" y="5" font-size="10px" fill="#2A2C34" font-family="Helvetica Neue, Helvetica, Arial, sans-serif"> Peter Griffin</text></g><g class="node" aria-label="graph-node1" transform="translate(-540.3595460783961,144.58304007062463)"><circle class="b-outline" cx="0" cy="0" r="32.5" fill="#D9C8AE" stroke="#c0a378" stroke-width="2px"/><text class="caption" text-anchor="middle" pointer-events="none" x="0" y="5" font-size="10px" fill="#2A2C34" font-family="Helvetica Neue, Helvetica, Arial, sans-serif"> Lois Griffin</text></g><g class="node" aria-label="graph-node2" transform="translate(307.1415191357717,148.5130599881122)"><circle class="b-outline" cx="0" cy="0" r="32.5" fill="#D9C8AE" stroke="#c0a378" stroke-width="2px"/><text class="caption" text-anchor="middle" pointer-events="none" x="0" y="5" font-size="10px" fill="#2A2C34" font-family="Helvetica Neue, Helvetica, Arial, sans-serif"> Meg Griffin</text></g><g class="node" aria-label="graph-node3" transform="translate(304.4533636363618,-151.43011316380174)"><circle class="b-outline" cx="0" cy="0" r="32.5" fill="#D9C8AE" stroke="#c0a378" stroke-width="2px"/><text class="caption" text-anchor="middle" pointer-events="none" x="0" y="5" font-size="10px" fill="#2A2C34" font-family="Helvetica Neue, Helvetica, Arial, sans-serif"> Chris Griffin</text></g><g class="node" aria-label="graph-node4" transform="translate(25.90902988328081,74.74039770701852)"><circle class="b-outline" cx="0" cy="0" r="32.5" fill="#D9C8AE" stroke="#c0a378" stroke-width="2px"/><text class="caption" text-anchor="middle" pointer-events="none" x="0" y="5" font-size="10px" fill="#2A2C34" font-family="Helvetica Neue, Helvetica, Arial, sans-serif"> Stewie Griffin</text></g><g class="node" aria-label="graph-node5" transform="translate(-511.0031035560654,-113.79527890637104)"><circle class="b-outline" cx="0" cy="0" r="32.5" fill="#8DCC93" stroke="#5db665" stroke-width="2px"/><text class="caption" text-anchor="middle" pointer-events="none" x="0" y="5" font-size="10px" fill="#2A2C34" font-family="Helvetica Neue, Helvetica, Arial, sans-serif"> Brian Griffin</text></g></g></svg>